<svg width="1200" height="300" viewBox="0 0 1200 300" fill="none" xmlns="http://www.w3.org/2000/svg">
<rect width="1200" height="300" fill="#FF0000"/>
<path d="M375.817 106.453L383.239 122.664L390.661 106.453H398.645L386.95 129.061V142H379.528V129.061L367.81 106.453H375.817ZM398.718 129.061V128.548C398.718 125.976 399.206 123.681 400.183 121.663C401.159 119.629 402.575 118.025 404.431 116.854C406.286 115.682 408.54 115.096 411.193 115.096C413.863 115.096 416.133 115.682 418.005 116.854C419.877 118.025 421.301 119.629 422.277 121.663C423.254 123.681 423.742 125.976 423.742 128.548V129.061C423.742 131.632 423.254 133.935 422.277 135.97C421.301 137.988 419.877 139.583 418.005 140.755C416.149 141.91 413.895 142.488 411.242 142.488C408.573 142.488 406.302 141.91 404.431 140.755C402.575 139.583 401.159 137.988 400.183 135.97C399.206 133.935 398.718 131.632 398.718 129.061ZM405.749 128.548V129.061C405.749 130.525 405.928 131.86 406.286 133.064C406.644 134.269 407.222 135.229 408.02 135.945C408.817 136.645 409.891 136.995 411.242 136.995C412.561 136.995 413.618 136.645 414.416 135.945C415.214 135.229 415.791 134.269 416.149 133.064C416.507 131.86 416.687 130.525 416.687 129.061V128.548C416.687 127.116 416.507 125.797 416.149 124.593C415.791 123.388 415.214 122.42 414.416 121.688C413.618 120.955 412.544 120.589 411.193 120.589C409.875 120.589 408.817 120.955 408.02 121.688C407.222 122.42 406.644 123.388 406.286 124.593C405.928 125.797 405.749 127.116 405.749 128.548ZM443.688 135.677V115.584H450.72V142H444.104L443.688 135.677ZM444.47 130.257L446.545 130.208C446.545 132.552 446.179 134.651 445.446 136.507C444.73 138.362 443.64 139.827 442.175 140.901C440.726 141.959 438.887 142.488 436.657 142.488C434.069 142.488 431.953 141.723 430.31 140.193C428.682 138.663 427.868 136.149 427.868 132.649V115.584H434.899V132.698C434.899 133.724 435.062 134.554 435.388 135.188C435.713 135.823 436.161 136.279 436.73 136.556C437.316 136.816 437.984 136.946 438.732 136.946C440.181 136.946 441.32 136.653 442.15 136.067C442.997 135.481 443.591 134.684 443.933 133.675C444.291 132.649 444.47 131.51 444.47 130.257ZM469.03 115.584V120.564H453.649V115.584H469.03ZM457.458 109.065H464.489V134.041C464.489 134.806 464.587 135.392 464.782 135.799C464.994 136.206 465.303 136.491 465.71 136.653C466.117 136.8 466.63 136.873 467.248 136.873C467.688 136.873 468.078 136.857 468.42 136.824C468.778 136.775 469.079 136.727 469.323 136.678L469.348 141.854C468.745 142.049 468.094 142.203 467.395 142.317C466.695 142.431 465.922 142.488 465.075 142.488C463.529 142.488 462.178 142.236 461.022 141.731C459.883 141.211 459.004 140.381 458.386 139.241C457.767 138.102 457.458 136.604 457.458 134.749V109.065ZM488.659 135.677V115.584H495.69V142H489.074L488.659 135.677ZM489.44 130.257L491.516 130.208C491.516 132.552 491.149 134.651 490.417 136.507C489.701 138.362 488.61 139.827 487.146 140.901C485.697 141.959 483.858 142.488 481.628 142.488C479.04 142.488 476.924 141.723 475.28 140.193C473.653 138.663 472.839 136.149 472.839 132.649V115.584H479.87V132.698C479.87 133.724 480.033 134.554 480.358 135.188C480.684 135.823 481.132 136.279 481.701 136.556C482.287 136.816 482.954 136.946 483.703 136.946C485.152 136.946 486.291 136.653 487.121 136.067C487.967 135.481 488.562 134.684 488.903 133.675C489.261 132.649 489.44 131.51 489.44 130.257ZM501.062 104.5H508.093V135.945L507.385 142H501.062V104.5ZM524.816 128.523V129.036C524.816 131.657 524.442 133.984 523.693 136.019C522.945 138.037 521.805 139.624 520.275 140.779C518.762 141.919 516.857 142.488 514.562 142.488C512.414 142.488 510.64 141.919 509.24 140.779C507.857 139.624 506.783 138.061 506.018 136.092C505.253 134.106 504.707 131.86 504.382 129.354V128.23C504.707 125.724 505.253 123.486 506.018 121.517C506.783 119.531 507.857 117.968 509.24 116.829C510.624 115.674 512.382 115.096 514.514 115.096C516.825 115.096 518.745 115.674 520.275 116.829C521.805 117.968 522.945 119.547 523.693 121.565C524.442 123.584 524.816 125.903 524.816 128.523ZM517.785 129.036V128.523C517.785 127.091 517.639 125.781 517.346 124.593C517.069 123.388 516.564 122.428 515.832 121.712C515.116 120.979 514.09 120.613 512.756 120.613C511.796 120.613 510.982 120.776 510.314 121.102C509.647 121.427 509.094 121.883 508.654 122.469C508.231 123.055 507.914 123.755 507.702 124.568C507.491 125.366 507.36 126.245 507.312 127.205V130.403C507.36 131.689 507.572 132.828 507.946 133.821C508.337 134.798 508.923 135.571 509.704 136.141C510.502 136.694 511.535 136.971 512.805 136.971C514.139 136.971 515.165 136.629 515.881 135.945C516.597 135.262 517.093 134.318 517.37 133.113C517.647 131.909 517.785 130.55 517.785 129.036ZM541.345 142.488C538.61 142.488 536.258 141.919 534.289 140.779C532.32 139.624 530.806 138.077 529.748 136.141C528.706 134.204 528.186 132.055 528.186 129.695V128.719C528.186 126.049 528.682 123.698 529.675 121.663C530.668 119.612 532.092 118.009 533.947 116.854C535.803 115.682 538.008 115.096 540.563 115.096C543.07 115.096 545.186 115.641 546.911 116.731C548.636 117.806 549.947 119.311 550.842 121.248C551.737 123.185 552.185 125.447 552.185 128.035V130.965H531.188V126.277H545.275V125.74C545.275 124.764 545.096 123.893 544.738 123.128C544.396 122.347 543.876 121.728 543.176 121.272C542.476 120.817 541.581 120.589 540.49 120.589C539.253 120.589 538.244 120.939 537.463 121.639C536.682 122.339 536.112 123.307 535.754 124.544C535.412 125.765 535.241 127.156 535.241 128.719V129.695C535.241 131.111 535.502 132.373 536.022 133.479C536.543 134.57 537.292 135.433 538.269 136.067C539.245 136.686 540.417 136.995 541.784 136.995C543.054 136.995 544.234 136.751 545.324 136.263C546.431 135.758 547.383 135.001 548.181 133.992L551.599 137.703C550.769 138.908 549.491 140.006 547.766 140.999C546.04 141.992 543.9 142.488 541.345 142.488ZM580.139 142H572.399L572.448 136.287H580.139C582.059 136.287 583.679 135.856 584.997 134.993C586.315 134.114 587.308 132.837 587.976 131.16C588.659 129.484 589.001 127.457 589.001 125.081V123.348C589.001 120.923 588.659 118.88 587.976 117.22C587.292 115.56 586.299 114.306 584.997 113.46C583.695 112.614 582.1 112.19 580.212 112.19H572.253V106.453H580.212C583.386 106.453 586.193 107.161 588.635 108.577C591.076 109.993 592.98 111.971 594.348 114.51C595.731 117.049 596.423 120.011 596.423 123.396V125.081C596.423 128.466 595.731 131.429 594.348 133.968C592.98 136.491 591.068 138.46 588.61 139.876C586.169 141.292 583.345 142 580.139 142ZM576.55 106.453V142H569.226V106.453H576.55ZM600.183 129.061V128.548C600.183 125.976 600.671 123.681 601.647 121.663C602.624 119.629 604.04 118.025 605.896 116.854C607.751 115.682 610.005 115.096 612.658 115.096C615.327 115.096 617.598 115.682 619.47 116.854C621.341 118.025 622.766 119.629 623.742 121.663C624.719 123.681 625.207 125.976 625.207 128.548V129.061C625.207 131.632 624.719 133.935 623.742 135.97C622.766 137.988 621.341 139.583 619.47 140.755C617.614 141.91 615.36 142.488 612.707 142.488C610.038 142.488 607.767 141.91 605.896 140.755C604.04 139.583 602.624 137.988 601.647 135.97C600.671 133.935 600.183 131.632 600.183 129.061ZM607.214 128.548V129.061C607.214 130.525 607.393 131.86 607.751 133.064C608.109 134.269 608.687 135.229 609.484 135.945C610.282 136.645 611.356 136.995 612.707 136.995C614.025 136.995 615.083 136.645 615.881 135.945C616.678 135.229 617.256 134.269 617.614 133.064C617.972 131.86 618.151 130.525 618.151 129.061V128.548C618.151 127.116 617.972 125.797 617.614 124.593C617.256 123.388 616.678 122.42 615.881 121.688C615.083 120.955 614.009 120.589 612.658 120.589C611.34 120.589 610.282 120.955 609.484 121.688C608.687 122.42 608.109 123.388 607.751 124.593C607.393 125.797 607.214 127.116 607.214 128.548ZM637.072 135.164L642.565 115.584H647.033L645.593 123.274L640.1 142H636.364L637.072 135.164ZM634.289 115.584L638.22 135.14L638.586 142H634.191L627.502 115.584H634.289ZM652.062 134.822L655.896 115.584H662.707L656.018 142H651.647L652.062 134.822ZM647.644 115.584L653.112 135.018L653.869 142H650.109L644.616 123.299L643.225 115.584H647.644ZM673.132 121.224V142H666.101V115.584H672.692L673.132 121.224ZM672.106 127.864H670.202C670.218 125.26 670.658 123.006 671.521 121.102C672.383 119.181 673.588 117.7 675.134 116.658C676.696 115.617 678.511 115.096 680.578 115.096C682.238 115.096 683.695 115.421 684.948 116.072C686.201 116.707 687.178 117.765 687.878 119.246C688.578 120.711 688.928 122.68 688.928 125.154V142H681.848V125.13C681.848 123.958 681.685 123.047 681.359 122.396C681.034 121.744 680.554 121.289 679.919 121.028C679.3 120.752 678.535 120.613 677.624 120.613C676.68 120.613 675.858 120.8 675.158 121.175C674.475 121.549 673.905 122.07 673.449 122.737C673.01 123.388 672.676 124.153 672.448 125.032C672.22 125.911 672.106 126.855 672.106 127.864ZM701.696 104.5V142H694.641V104.5H701.696ZM706.384 129.061V128.548C706.384 125.976 706.872 123.681 707.849 121.663C708.825 119.629 710.241 118.025 712.097 116.854C713.952 115.682 716.206 115.096 718.859 115.096C721.529 115.096 723.799 115.682 725.671 116.854C727.543 118.025 728.967 119.629 729.943 121.663C730.92 123.681 731.408 125.976 731.408 128.548V129.061C731.408 131.632 730.92 133.935 729.943 135.97C728.967 137.988 727.543 139.583 725.671 140.755C723.815 141.91 721.561 142.488 718.908 142.488C716.239 142.488 713.968 141.91 712.097 140.755C710.241 139.583 708.825 137.988 707.849 135.97C706.872 133.935 706.384 131.632 706.384 129.061ZM713.415 128.548V129.061C713.415 130.525 713.594 131.86 713.952 133.064C714.31 134.269 714.888 135.229 715.686 135.945C716.483 136.645 717.557 136.995 718.908 136.995C720.227 136.995 721.285 136.645 722.082 135.945C722.88 135.229 723.457 134.269 723.815 133.064C724.174 131.86 724.353 130.525 724.353 129.061V128.548C724.353 127.116 724.174 125.797 723.815 124.593C723.457 123.388 722.88 122.42 722.082 121.688C721.285 120.955 720.21 120.589 718.859 120.589C717.541 120.589 716.483 120.955 715.686 121.688C714.888 122.42 714.31 123.388 713.952 124.593C713.594 125.797 713.415 127.116 713.415 128.548ZM749.987 136.043V124.275C749.987 123.022 749.67 122.021 749.035 121.272C748.417 120.524 747.424 120.149 746.057 120.149C745.275 120.149 744.6 120.288 744.03 120.564C743.461 120.825 743.021 121.207 742.712 121.712C742.403 122.2 742.248 122.778 742.248 123.445H735.217C735.217 121.932 735.673 120.548 736.584 119.295C737.512 118.025 738.814 117.008 740.49 116.243C742.183 115.478 744.169 115.096 746.447 115.096C748.498 115.096 750.321 115.438 751.916 116.121C753.511 116.805 754.764 117.83 755.676 119.197C756.604 120.564 757.067 122.273 757.067 124.324V135.628C757.067 137.076 757.157 138.265 757.336 139.192C757.515 140.104 757.775 140.901 758.117 141.585V142H751.013C750.671 141.284 750.41 140.389 750.231 139.314C750.069 138.224 749.987 137.133 749.987 136.043ZM750.915 125.911L750.964 129.891H747.033C745.161 129.891 743.794 130.289 742.932 131.087C742.085 131.868 741.662 132.869 741.662 134.09C741.662 135.001 741.971 135.758 742.59 136.36C743.208 136.946 744.047 137.239 745.104 137.239C746.162 137.239 747.082 137.028 747.863 136.604C748.645 136.181 749.247 135.66 749.67 135.042C750.109 134.424 750.337 133.838 750.354 133.284L752.209 136.263C751.949 136.93 751.59 137.622 751.135 138.338C750.695 139.054 750.134 139.729 749.45 140.364C748.767 140.983 747.945 141.495 746.984 141.902C746.024 142.293 744.885 142.488 743.566 142.488C741.89 142.488 740.368 142.155 739.001 141.487C737.65 140.804 736.576 139.868 735.778 138.68C734.997 137.475 734.606 136.108 734.606 134.578C734.606 131.827 735.632 129.695 737.683 128.182C739.733 126.668 742.785 125.911 746.838 125.911H750.915ZM778.088 136.238V104.5H785.168V142H778.796L778.088 136.238ZM761.389 129.109V128.597C761.389 125.911 761.787 123.559 762.585 121.541C763.382 119.507 764.554 117.928 766.101 116.805C767.647 115.665 769.519 115.096 771.716 115.096C773.783 115.096 775.508 115.674 776.892 116.829C778.275 117.968 779.366 119.539 780.163 121.541C780.977 123.527 781.538 125.805 781.848 128.377V129.5C781.538 131.941 780.977 134.147 780.163 136.116C779.366 138.069 778.267 139.624 776.867 140.779C775.484 141.919 773.75 142.488 771.667 142.488C769.486 142.488 767.622 141.91 766.076 140.755C764.546 139.583 763.382 137.988 762.585 135.97C761.787 133.951 761.389 131.665 761.389 129.109ZM768.42 128.597V129.109C768.42 130.558 768.583 131.884 768.908 133.089C769.234 134.277 769.763 135.221 770.495 135.921C771.228 136.604 772.212 136.946 773.449 136.946C774.654 136.946 775.646 136.678 776.428 136.141C777.209 135.587 777.803 134.83 778.21 133.87C778.633 132.91 778.877 131.803 778.942 130.55V127.352C778.894 126.326 778.747 125.407 778.503 124.593C778.275 123.763 777.933 123.055 777.478 122.469C777.038 121.883 776.485 121.427 775.817 121.102C775.166 120.776 774.393 120.613 773.498 120.613C772.277 120.613 771.293 120.971 770.544 121.688C769.812 122.387 769.274 123.34 768.933 124.544C768.591 125.748 768.42 127.099 768.42 128.597ZM802.819 142.488C800.085 142.488 797.733 141.919 795.764 140.779C793.794 139.624 792.281 138.077 791.223 136.141C790.181 134.204 789.66 132.055 789.66 129.695V128.719C789.66 126.049 790.157 123.698 791.149 121.663C792.142 119.612 793.566 118.009 795.422 116.854C797.277 115.682 799.483 115.096 802.038 115.096C804.545 115.096 806.66 115.641 808.386 116.731C810.111 117.806 811.421 119.311 812.316 121.248C813.212 123.185 813.659 125.447 813.659 128.035V130.965H792.663V126.277H806.75V125.74C806.75 124.764 806.571 123.893 806.213 123.128C805.871 122.347 805.35 121.728 804.65 121.272C803.951 120.817 803.055 120.589 801.965 120.589C800.728 120.589 799.719 120.939 798.938 121.639C798.156 122.339 797.587 123.307 797.229 124.544C796.887 125.765 796.716 127.156 796.716 128.719V129.695C796.716 131.111 796.976 132.373 797.497 133.479C798.018 134.57 798.767 135.433 799.743 136.067C800.72 136.686 801.892 136.995 803.259 136.995C804.528 136.995 805.708 136.751 806.799 136.263C807.906 135.758 808.858 135.001 809.655 133.992L813.073 137.703C812.243 138.908 810.965 140.006 809.24 140.999C807.515 141.992 805.375 142.488 802.819 142.488ZM824.694 121.346V142H817.663V115.584H824.279L824.694 121.346ZM832.653 115.413L832.531 121.932C832.189 121.883 831.774 121.842 831.286 121.81C830.814 121.761 830.383 121.736 829.992 121.736C828.674 121.736 827.583 121.964 826.721 122.42C825.874 122.859 825.24 123.502 824.816 124.349C824.393 125.179 824.165 126.196 824.133 127.4L822.717 126.961C822.717 124.682 823.018 122.648 823.62 120.857C824.222 119.067 825.093 117.659 826.232 116.634C827.388 115.608 828.796 115.096 830.456 115.096C830.847 115.096 831.245 115.128 831.652 115.193C832.059 115.242 832.393 115.315 832.653 115.413Z" fill="white"/>
<path d="M285.842 197H282.629L282.648 195.965H285.842C286.857 195.965 287.736 195.737 288.479 195.281C289.221 194.826 289.794 194.191 290.197 193.377C290.601 192.557 290.803 191.609 290.803 190.535V189.227C290.803 188.126 290.598 187.173 290.188 186.365C289.784 185.558 289.217 184.933 288.488 184.49C287.759 184.041 286.906 183.816 285.93 183.816H282.57V182.781H285.93C287.108 182.781 288.153 183.051 289.064 183.592C289.982 184.126 290.702 184.878 291.223 185.848C291.743 186.811 292.004 187.944 292.004 189.246V190.535C292.004 191.844 291.743 192.98 291.223 193.943C290.702 194.907 289.979 195.659 289.055 196.199C288.13 196.733 287.059 197 285.842 197ZM283.156 182.781V197H281.945V182.781H283.156ZM294.143 191.873V191.561C294.143 190.532 294.338 189.62 294.729 188.826C295.119 188.025 295.666 187.394 296.369 186.932C297.079 186.469 297.906 186.238 298.85 186.238C299.813 186.238 300.646 186.469 301.35 186.932C302.059 187.394 302.606 188.025 302.99 188.826C303.381 189.62 303.576 190.532 303.576 191.561V191.873C303.576 192.895 303.381 193.81 302.99 194.617C302.606 195.418 302.062 196.049 301.359 196.512C300.656 196.967 299.826 197.195 298.869 197.195C297.919 197.195 297.089 196.967 296.379 196.512C295.669 196.049 295.119 195.418 294.729 194.617C294.338 193.81 294.143 192.895 294.143 191.873ZM295.314 191.561V191.873C295.314 192.641 295.451 193.354 295.725 194.012C295.998 194.669 296.398 195.197 296.926 195.594C297.453 195.991 298.101 196.189 298.869 196.189C299.631 196.189 300.272 195.991 300.793 195.594C301.32 195.197 301.721 194.669 301.994 194.012C302.268 193.354 302.404 192.641 302.404 191.873V191.561C302.404 190.805 302.264 190.102 301.984 189.451C301.711 188.794 301.311 188.263 300.783 187.859C300.262 187.449 299.618 187.244 298.85 187.244C298.088 187.244 297.443 187.449 296.916 187.859C296.395 188.263 295.998 188.794 295.725 189.451C295.451 190.102 295.314 190.805 295.314 191.561ZM308.928 194.539L311.467 186.434H312.307L311.818 188.611L309.152 197H308.312L308.928 194.539ZM306.291 186.434L308.527 194.588L308.996 197H308.146L305.08 186.434H306.291ZM315.471 194.549L317.648 186.434H318.859L315.783 197H314.934L315.471 194.549ZM312.473 186.434L314.982 194.461L315.617 197H314.787L312.062 188.602L311.594 186.434H312.473ZM322.238 188.689V197H321.066V186.434H322.189L322.238 188.689ZM321.984 191.062L321.467 190.77C321.519 189.936 321.724 189.178 322.082 188.494C322.44 187.811 322.925 187.264 323.537 186.854C324.149 186.443 324.862 186.238 325.676 186.238C326.379 186.238 326.981 186.368 327.482 186.629C327.984 186.883 328.368 187.296 328.635 187.869C328.908 188.436 329.045 189.184 329.045 190.115V197H327.873V190.105C327.873 189.383 327.769 188.816 327.561 188.406C327.359 187.99 327.072 187.697 326.701 187.527C326.33 187.352 325.891 187.264 325.383 187.264C324.829 187.264 324.341 187.384 323.918 187.625C323.501 187.866 323.15 188.182 322.863 188.572C322.583 188.956 322.368 189.37 322.219 189.812C322.069 190.255 321.991 190.672 321.984 191.062ZM333.381 182V197H332.199V182H333.381ZM335.92 191.873V191.561C335.92 190.532 336.115 189.62 336.506 188.826C336.896 188.025 337.443 187.394 338.146 186.932C338.856 186.469 339.683 186.238 340.627 186.238C341.59 186.238 342.424 186.469 343.127 186.932C343.837 187.394 344.383 188.025 344.768 188.826C345.158 189.62 345.354 190.532 345.354 191.561V191.873C345.354 192.895 345.158 193.81 344.768 194.617C344.383 195.418 343.84 196.049 343.137 196.512C342.434 196.967 341.604 197.195 340.646 197.195C339.696 197.195 338.866 196.967 338.156 196.512C337.447 196.049 336.896 195.418 336.506 194.617C336.115 193.81 335.92 192.895 335.92 191.873ZM337.092 191.561V191.873C337.092 192.641 337.229 193.354 337.502 194.012C337.775 194.669 338.176 195.197 338.703 195.594C339.23 195.991 339.878 196.189 340.646 196.189C341.408 196.189 342.049 195.991 342.57 195.594C343.098 195.197 343.498 194.669 343.771 194.012C344.045 193.354 344.182 192.641 344.182 191.873V191.561C344.182 190.805 344.042 190.102 343.762 189.451C343.488 188.794 343.088 188.263 342.561 187.859C342.04 187.449 341.395 187.244 340.627 187.244C339.865 187.244 339.221 187.449 338.693 187.859C338.173 188.263 337.775 188.794 337.502 189.451C337.229 190.102 337.092 190.805 337.092 191.561ZM354.201 195.105V189.656C354.201 188.908 353.967 188.318 353.498 187.889C353.029 187.452 352.355 187.234 351.477 187.234C350.93 187.234 350.441 187.329 350.012 187.518C349.589 187.706 349.253 187.964 349.006 188.289C348.765 188.608 348.645 188.963 348.645 189.354L347.482 189.344C347.482 188.816 347.652 188.318 347.99 187.85C348.329 187.374 348.801 186.987 349.406 186.688C350.018 186.388 350.728 186.238 351.535 186.238C352.284 186.238 352.945 186.365 353.518 186.619C354.097 186.873 354.549 187.257 354.875 187.771C355.207 188.279 355.373 188.914 355.373 189.676V194.783C355.373 195.148 355.399 195.525 355.451 195.916C355.51 196.307 355.591 196.626 355.695 196.873V197H354.445C354.367 196.772 354.305 196.482 354.26 196.131C354.221 195.773 354.201 195.431 354.201 195.105ZM354.475 190.848L354.494 191.756H352.209C351.011 191.756 350.077 191.964 349.406 192.381C348.736 192.791 348.4 193.361 348.4 194.09C348.4 194.656 348.612 195.141 349.035 195.545C349.458 195.942 350.038 196.141 350.773 196.141C351.418 196.141 351.988 196.023 352.482 195.789C352.984 195.548 353.394 195.232 353.713 194.842C354.038 194.451 354.26 194.025 354.377 193.562L354.875 194.246C354.79 194.559 354.637 194.887 354.416 195.232C354.195 195.577 353.905 195.9 353.547 196.199C353.195 196.492 352.775 196.733 352.287 196.922C351.805 197.104 351.255 197.195 350.637 197.195C349.953 197.195 349.354 197.065 348.84 196.805C348.326 196.538 347.928 196.18 347.648 195.73C347.368 195.275 347.229 194.76 347.229 194.188C347.229 193.152 347.658 192.339 348.518 191.746C349.377 191.147 350.552 190.848 352.043 190.848H354.475ZM365.363 194.949V182H366.535V197H365.441L365.363 194.949ZM358.02 191.824V191.619C358.02 190.525 358.186 189.578 358.518 188.777C358.85 187.97 359.322 187.345 359.934 186.902C360.546 186.46 361.268 186.238 362.102 186.238C362.935 186.238 363.635 186.417 364.201 186.775C364.774 187.133 365.23 187.632 365.568 188.27C365.913 188.908 366.148 189.653 366.271 190.506V193.104C366.167 193.891 365.946 194.594 365.607 195.213C365.275 195.831 364.816 196.316 364.23 196.668C363.645 197.02 362.928 197.195 362.082 197.195C361.255 197.195 360.536 196.967 359.924 196.512C359.318 196.049 358.85 195.415 358.518 194.607C358.186 193.8 358.02 192.872 358.02 191.824ZM359.211 191.619V191.824C359.211 192.638 359.322 193.374 359.543 194.031C359.764 194.689 360.103 195.21 360.559 195.594C361.014 195.971 361.597 196.16 362.307 196.16C362.977 196.16 363.537 196.033 363.986 195.779C364.442 195.519 364.807 195.177 365.08 194.754C365.354 194.324 365.552 193.855 365.676 193.348V190.32C365.604 189.982 365.493 189.633 365.344 189.275C365.194 188.917 364.989 188.589 364.729 188.289C364.475 187.983 364.149 187.736 363.752 187.547C363.361 187.358 362.886 187.264 362.326 187.264C361.61 187.264 361.021 187.456 360.559 187.84C360.103 188.224 359.764 188.745 359.543 189.402C359.322 190.06 359.211 190.799 359.211 191.619ZM375.119 182.781L379.426 190.516L383.762 182.781H385.158L380.021 191.648V197H378.811V191.648L373.684 182.781H375.119ZM385.686 191.873V191.561C385.686 190.532 385.881 189.62 386.271 188.826C386.662 188.025 387.209 187.394 387.912 186.932C388.622 186.469 389.449 186.238 390.393 186.238C391.356 186.238 392.189 186.469 392.893 186.932C393.602 187.394 394.149 188.025 394.533 188.826C394.924 189.62 395.119 190.532 395.119 191.561V191.873C395.119 192.895 394.924 193.81 394.533 194.617C394.149 195.418 393.605 196.049 392.902 196.512C392.199 196.967 391.369 197.195 390.412 197.195C389.462 197.195 388.632 196.967 387.922 196.512C387.212 196.049 386.662 195.418 386.271 194.617C385.881 193.81 385.686 192.895 385.686 191.873ZM386.857 191.561V191.873C386.857 192.641 386.994 193.354 387.268 194.012C387.541 194.669 387.941 195.197 388.469 195.594C388.996 195.991 389.644 196.189 390.412 196.189C391.174 196.189 391.815 195.991 392.336 195.594C392.863 195.197 393.264 194.669 393.537 194.012C393.811 193.354 393.947 192.641 393.947 191.873V191.561C393.947 190.805 393.807 190.102 393.527 189.451C393.254 188.794 392.854 188.263 392.326 187.859C391.805 187.449 391.161 187.244 390.393 187.244C389.631 187.244 388.986 187.449 388.459 187.859C387.938 188.263 387.541 188.794 387.268 189.451C386.994 190.102 386.857 190.805 386.857 191.561ZM404.309 194.559V186.434H405.49V197H404.348L404.309 194.559ZM404.523 192.596L405.119 192.576C405.119 193.462 404.979 194.253 404.699 194.949C404.419 195.646 403.973 196.196 403.361 196.6C402.756 196.997 401.958 197.195 400.969 197.195C399.934 197.195 399.094 196.889 398.449 196.277C397.811 195.665 397.492 194.64 397.492 193.201V186.434H398.664V193.221C398.664 193.963 398.775 194.549 398.996 194.979C399.217 195.408 399.514 195.714 399.885 195.896C400.256 196.072 400.66 196.16 401.096 196.16C401.955 196.16 402.632 195.997 403.127 195.672C403.628 195.34 403.986 194.904 404.201 194.363C404.416 193.816 404.523 193.227 404.523 192.596ZM413.576 182.781V197H412.385V182.781H413.576ZM418.449 182.781V183.816H407.512V182.781H418.449ZM426.32 194.559V186.434H427.502V197H426.359L426.32 194.559ZM426.535 192.596L427.131 192.576C427.131 193.462 426.991 194.253 426.711 194.949C426.431 195.646 425.985 196.196 425.373 196.6C424.768 196.997 423.97 197.195 422.98 197.195C421.945 197.195 421.105 196.889 420.461 196.277C419.823 195.665 419.504 194.64 419.504 193.201V186.434H420.676V193.221C420.676 193.963 420.786 194.549 421.008 194.979C421.229 195.408 421.525 195.714 421.896 195.896C422.268 196.072 422.671 196.16 423.107 196.16C423.967 196.16 424.644 195.997 425.139 195.672C425.64 195.34 425.998 194.904 426.213 194.363C426.428 193.816 426.535 193.227 426.535 192.596ZM430.529 182H431.701V194.949L431.623 197H430.529V182ZM439.055 191.619V191.824C439.055 192.872 438.895 193.8 438.576 194.607C438.264 195.415 437.805 196.049 437.199 196.512C436.6 196.967 435.874 197.195 435.021 197.195C434.175 197.195 433.459 197.02 432.873 196.668C432.287 196.316 431.825 195.831 431.486 195.213C431.148 194.594 430.926 193.891 430.822 193.104V190.506C430.952 189.653 431.187 188.908 431.525 188.27C431.864 187.632 432.32 187.133 432.893 186.775C433.472 186.417 434.175 186.238 435.002 186.238C435.861 186.238 436.594 186.46 437.199 186.902C437.805 187.345 438.264 187.97 438.576 188.777C438.895 189.578 439.055 190.525 439.055 191.619ZM437.873 191.824V191.619C437.873 190.799 437.766 190.06 437.551 189.402C437.342 188.745 437.01 188.224 436.555 187.84C436.099 187.456 435.507 187.264 434.777 187.264C434.217 187.264 433.742 187.358 433.352 187.547C432.961 187.736 432.635 187.983 432.375 188.289C432.121 188.589 431.919 188.917 431.77 189.275C431.62 189.633 431.509 189.982 431.438 190.32V193.348C431.548 193.842 431.74 194.305 432.014 194.734C432.287 195.158 432.652 195.503 433.107 195.77C433.57 196.03 434.133 196.16 434.797 196.16C435.507 196.16 436.086 195.971 436.535 195.594C436.991 195.21 437.326 194.689 437.541 194.031C437.762 193.374 437.873 192.638 437.873 191.824ZM445.734 197.195C444.816 197.195 443.999 196.974 443.283 196.531C442.567 196.089 442.004 195.477 441.594 194.695C441.19 193.914 440.988 193.022 440.988 192.02V191.6C440.988 190.506 441.197 189.559 441.613 188.758C442.036 187.951 442.593 187.329 443.283 186.893C443.973 186.456 444.719 186.238 445.52 186.238C446.411 186.238 447.17 186.447 447.795 186.863C448.42 187.28 448.892 187.853 449.211 188.582C449.536 189.305 449.699 190.138 449.699 191.082V191.795H441.701V190.789H448.527V190.662C448.514 190.076 448.394 189.523 448.166 189.002C447.938 188.481 447.606 188.058 447.17 187.732C446.734 187.407 446.184 187.244 445.52 187.244C444.855 187.244 444.27 187.43 443.762 187.801C443.26 188.165 442.867 188.676 442.58 189.334C442.3 189.985 442.16 190.74 442.16 191.6V192.02C442.16 192.788 442.313 193.488 442.619 194.119C442.925 194.751 443.348 195.255 443.889 195.633C444.436 196.01 445.067 196.199 445.783 196.199C446.402 196.199 446.952 196.085 447.434 195.857C447.922 195.623 448.358 195.255 448.742 194.754L449.475 195.32C449.13 195.828 448.654 196.268 448.049 196.639C447.45 197.01 446.678 197.195 445.734 197.195ZM460.471 195.867L463.859 186.434H465.07L461.115 197H460.256L460.471 195.867ZM457.414 186.434L460.852 195.896L461.027 197H460.168L456.203 186.434H457.414ZM468.303 186.434V197H467.121V186.434H468.303ZM466.916 183.387C466.916 183.159 466.988 182.97 467.131 182.82C467.274 182.664 467.473 182.586 467.727 182.586C467.974 182.586 468.169 182.664 468.312 182.82C468.462 182.97 468.537 183.159 468.537 183.387C468.537 183.602 468.462 183.784 468.312 183.934C468.169 184.083 467.974 184.158 467.727 184.158C467.473 184.158 467.274 184.083 467.131 183.934C466.988 183.784 466.916 183.602 466.916 183.387ZM478.352 194.949V182H479.523V197H478.43L478.352 194.949ZM471.008 191.824V191.619C471.008 190.525 471.174 189.578 471.506 188.777C471.838 187.97 472.31 187.345 472.922 186.902C473.534 186.46 474.257 186.238 475.09 186.238C475.923 186.238 476.623 186.417 477.189 186.775C477.762 187.133 478.218 187.632 478.557 188.27C478.902 188.908 479.136 189.653 479.26 190.506V193.104C479.156 193.891 478.934 194.594 478.596 195.213C478.264 195.831 477.805 196.316 477.219 196.668C476.633 197.02 475.917 197.195 475.07 197.195C474.243 197.195 473.524 196.967 472.912 196.512C472.307 196.049 471.838 195.415 471.506 194.607C471.174 193.8 471.008 192.872 471.008 191.824ZM472.199 191.619V191.824C472.199 192.638 472.31 193.374 472.531 194.031C472.753 194.689 473.091 195.21 473.547 195.594C474.003 195.971 474.585 196.16 475.295 196.16C475.965 196.16 476.525 196.033 476.975 195.779C477.43 195.519 477.795 195.177 478.068 194.754C478.342 194.324 478.54 193.855 478.664 193.348V190.32C478.592 189.982 478.482 189.633 478.332 189.275C478.182 188.917 477.977 188.589 477.717 188.289C477.463 187.983 477.137 187.736 476.74 187.547C476.35 187.358 475.874 187.264 475.314 187.264C474.598 187.264 474.009 187.456 473.547 187.84C473.091 188.224 472.753 188.745 472.531 189.402C472.31 190.06 472.199 190.799 472.199 191.619ZM486.691 197.195C485.773 197.195 484.956 196.974 484.24 196.531C483.524 196.089 482.961 195.477 482.551 194.695C482.147 193.914 481.945 193.022 481.945 192.02V191.6C481.945 190.506 482.154 189.559 482.57 188.758C482.993 187.951 483.55 187.329 484.24 186.893C484.93 186.456 485.676 186.238 486.477 186.238C487.368 186.238 488.127 186.447 488.752 186.863C489.377 187.28 489.849 187.853 490.168 188.582C490.493 189.305 490.656 190.138 490.656 191.082V191.795H482.658V190.789H489.484V190.662C489.471 190.076 489.351 189.523 489.123 189.002C488.895 188.481 488.563 188.058 488.127 187.732C487.691 187.407 487.141 187.244 486.477 187.244C485.812 187.244 485.227 187.43 484.719 187.801C484.217 188.165 483.824 188.676 483.537 189.334C483.257 189.985 483.117 190.74 483.117 191.6V192.02C483.117 192.788 483.27 193.488 483.576 194.119C483.882 194.751 484.305 195.255 484.846 195.633C485.393 196.01 486.024 196.199 486.74 196.199C487.359 196.199 487.909 196.085 488.391 195.857C488.879 195.623 489.315 195.255 489.699 194.754L490.432 195.32C490.087 195.828 489.611 196.268 489.006 196.639C488.407 197.01 487.635 197.195 486.691 197.195ZM492.307 191.873V191.561C492.307 190.532 492.502 189.62 492.893 188.826C493.283 188.025 493.83 187.394 494.533 186.932C495.243 186.469 496.07 186.238 497.014 186.238C497.977 186.238 498.811 186.469 499.514 186.932C500.223 187.394 500.77 188.025 501.154 188.826C501.545 189.62 501.74 190.532 501.74 191.561V191.873C501.74 192.895 501.545 193.81 501.154 194.617C500.77 195.418 500.227 196.049 499.523 196.512C498.82 196.967 497.99 197.195 497.033 197.195C496.083 197.195 495.253 196.967 494.543 196.512C493.833 196.049 493.283 195.418 492.893 194.617C492.502 193.81 492.307 192.895 492.307 191.873ZM493.479 191.561V191.873C493.479 192.641 493.615 193.354 493.889 194.012C494.162 194.669 494.562 195.197 495.09 195.594C495.617 195.991 496.265 196.189 497.033 196.189C497.795 196.189 498.436 195.991 498.957 195.594C499.484 195.197 499.885 194.669 500.158 194.012C500.432 193.354 500.568 192.641 500.568 191.873V191.561C500.568 190.805 500.428 190.102 500.148 189.451C499.875 188.794 499.475 188.263 498.947 187.859C498.426 187.449 497.782 187.244 497.014 187.244C496.252 187.244 495.607 187.449 495.08 187.859C494.559 188.263 494.162 188.794 493.889 189.451C493.615 190.102 493.479 190.805 493.479 191.561ZM510.49 194.305C510.49 194.012 510.415 193.729 510.266 193.455C510.122 193.182 509.849 192.928 509.445 192.693C509.042 192.452 508.449 192.251 507.668 192.088C506.88 191.925 506.21 191.723 505.656 191.482C505.109 191.242 504.689 190.932 504.396 190.555C504.11 190.171 503.967 189.692 503.967 189.119C503.967 188.592 504.12 188.113 504.426 187.684C504.732 187.247 505.161 186.899 505.715 186.639C506.275 186.372 506.936 186.238 507.697 186.238C508.518 186.238 509.217 186.378 509.797 186.658C510.376 186.932 510.822 187.306 511.135 187.781C511.447 188.257 511.604 188.797 511.604 189.402H510.422C510.422 188.855 510.188 188.361 509.719 187.918C509.25 187.469 508.576 187.244 507.697 187.244C507.092 187.244 506.6 187.339 506.223 187.527C505.852 187.71 505.578 187.941 505.402 188.221C505.233 188.501 505.148 188.787 505.148 189.08C505.148 189.393 505.217 189.669 505.354 189.91C505.497 190.151 505.77 190.369 506.174 190.564C506.577 190.76 507.173 190.945 507.961 191.121C508.814 191.316 509.51 191.551 510.051 191.824C510.598 192.091 511.001 192.42 511.262 192.811C511.529 193.201 511.662 193.676 511.662 194.236C511.662 194.816 511.499 195.33 511.174 195.779C510.855 196.222 510.402 196.57 509.816 196.824C509.237 197.072 508.553 197.195 507.766 197.195C506.874 197.195 506.118 197.046 505.5 196.746C504.882 196.447 504.413 196.056 504.094 195.574C503.775 195.092 503.615 194.575 503.615 194.021H504.797C504.829 194.575 504.999 195.011 505.305 195.33C505.617 195.643 505.995 195.864 506.438 195.994C506.88 196.124 507.323 196.189 507.766 196.189C508.358 196.189 508.856 196.102 509.26 195.926C509.663 195.75 509.969 195.519 510.178 195.232C510.386 194.939 510.49 194.63 510.49 194.305ZM522.6 194.539L525.139 186.434H525.979L525.49 188.611L522.824 197H521.984L522.6 194.539ZM519.963 186.434L522.199 194.588L522.668 197H521.818L518.752 186.434H519.963ZM529.143 194.549L531.32 186.434H532.531L529.455 197H528.605L529.143 194.549ZM526.145 186.434L528.654 194.461L529.289 197H528.459L525.734 188.602L525.266 186.434H526.145ZM536.057 186.434V197H534.875V186.434H536.057ZM534.67 183.387C534.67 183.159 534.742 182.97 534.885 182.82C535.028 182.664 535.227 182.586 535.48 182.586C535.728 182.586 535.923 182.664 536.066 182.82C536.216 182.97 536.291 183.159 536.291 183.387C536.291 183.602 536.216 183.784 536.066 183.934C535.923 184.083 535.728 184.158 535.48 184.158C535.227 184.158 535.028 184.083 534.885 183.934C534.742 183.784 534.67 183.602 534.67 183.387ZM543.244 186.434V187.4H537.932V186.434H543.244ZM539.875 183.729H541.057V194.422C541.057 194.91 541.118 195.281 541.242 195.535C541.372 195.783 541.542 195.949 541.75 196.033C541.965 196.111 542.193 196.15 542.434 196.15C542.609 196.15 542.775 196.141 542.932 196.121C543.094 196.095 543.244 196.072 543.381 196.053L543.43 197.039C543.286 197.085 543.098 197.12 542.863 197.146C542.635 197.179 542.404 197.195 542.17 197.195C541.727 197.195 541.33 197.111 540.979 196.941C540.633 196.772 540.363 196.486 540.168 196.082C539.973 195.678 539.875 195.125 539.875 194.422V183.729ZM546.848 182V197H545.676V182H546.848ZM546.594 191.062L546.076 190.77C546.128 189.936 546.333 189.178 546.691 188.494C547.049 187.811 547.535 187.264 548.146 186.854C548.758 186.443 549.471 186.238 550.285 186.238C550.988 186.238 551.59 186.368 552.092 186.629C552.593 186.883 552.977 187.296 553.244 187.869C553.518 188.436 553.654 189.184 553.654 190.115V197H552.482V190.105C552.482 189.383 552.378 188.816 552.17 188.406C551.968 187.99 551.682 187.697 551.311 187.527C550.939 187.352 550.5 187.264 549.992 187.264C549.439 187.264 548.951 187.384 548.527 187.625C548.111 187.866 547.759 188.182 547.473 188.572C547.193 188.956 546.978 189.37 546.828 189.812C546.678 190.255 546.6 190.672 546.594 191.062ZM565.959 196.189C566.447 196.189 566.906 196.095 567.336 195.906C567.766 195.717 568.124 195.441 568.41 195.076C568.697 194.712 568.856 194.262 568.889 193.729H570.021C569.989 194.399 569.784 194.995 569.406 195.516C569.029 196.036 568.537 196.447 567.932 196.746C567.333 197.046 566.675 197.195 565.959 197.195C564.969 197.195 564.139 196.961 563.469 196.492C562.798 196.023 562.294 195.392 561.955 194.598C561.617 193.797 561.447 192.905 561.447 191.922V191.512C561.447 190.522 561.617 189.63 561.955 188.836C562.294 188.042 562.798 187.41 563.469 186.941C564.139 186.473 564.966 186.238 565.949 186.238C566.704 186.238 567.382 186.391 567.98 186.697C568.579 187.003 569.061 187.439 569.426 188.006C569.79 188.566 569.989 189.23 570.021 189.998H568.889C568.856 189.425 568.706 188.937 568.439 188.533C568.173 188.123 567.821 187.807 567.385 187.586C566.955 187.358 566.477 187.244 565.949 187.244C565.148 187.244 564.504 187.446 564.016 187.85C563.527 188.253 563.173 188.781 562.951 189.432C562.73 190.076 562.619 190.77 562.619 191.512V191.922C562.619 192.671 562.727 193.37 562.941 194.021C563.163 194.666 563.518 195.19 564.006 195.594C564.501 195.991 565.152 196.189 565.959 196.189ZM579.133 194.559V186.434H580.314V197H579.172L579.133 194.559ZM579.348 192.596L579.943 192.576C579.943 193.462 579.803 194.253 579.523 194.949C579.243 195.646 578.798 196.196 578.186 196.6C577.58 196.997 576.783 197.195 575.793 197.195C574.758 197.195 573.918 196.889 573.273 196.277C572.635 195.665 572.316 194.64 572.316 193.201V186.434H573.488V193.221C573.488 193.963 573.599 194.549 573.82 194.979C574.042 195.408 574.338 195.714 574.709 195.896C575.08 196.072 575.484 196.16 575.92 196.16C576.779 196.16 577.456 195.997 577.951 195.672C578.452 195.34 578.811 194.904 579.025 194.363C579.24 193.816 579.348 193.227 579.348 192.596ZM589.689 194.305C589.689 194.012 589.615 193.729 589.465 193.455C589.322 193.182 589.048 192.928 588.645 192.693C588.241 192.452 587.648 192.251 586.867 192.088C586.079 191.925 585.409 191.723 584.855 191.482C584.309 191.242 583.889 190.932 583.596 190.555C583.309 190.171 583.166 189.692 583.166 189.119C583.166 188.592 583.319 188.113 583.625 187.684C583.931 187.247 584.361 186.899 584.914 186.639C585.474 186.372 586.135 186.238 586.896 186.238C587.717 186.238 588.417 186.378 588.996 186.658C589.576 186.932 590.021 187.306 590.334 187.781C590.646 188.257 590.803 188.797 590.803 189.402H589.621C589.621 188.855 589.387 188.361 588.918 187.918C588.449 187.469 587.775 187.244 586.896 187.244C586.291 187.244 585.799 187.339 585.422 187.527C585.051 187.71 584.777 187.941 584.602 188.221C584.432 188.501 584.348 188.787 584.348 189.08C584.348 189.393 584.416 189.669 584.553 189.91C584.696 190.151 584.969 190.369 585.373 190.564C585.777 190.76 586.372 190.945 587.16 191.121C588.013 191.316 588.71 191.551 589.25 191.824C589.797 192.091 590.201 192.42 590.461 192.811C590.728 193.201 590.861 193.676 590.861 194.236C590.861 194.816 590.699 195.33 590.373 195.779C590.054 196.222 589.602 196.57 589.016 196.824C588.436 197.072 587.753 197.195 586.965 197.195C586.073 197.195 585.318 197.046 584.699 196.746C584.081 196.447 583.612 196.056 583.293 195.574C582.974 195.092 582.814 194.575 582.814 194.021H583.996C584.029 194.575 584.198 195.011 584.504 195.33C584.816 195.643 585.194 195.864 585.637 195.994C586.079 196.124 586.522 196.189 586.965 196.189C587.557 196.189 588.055 196.102 588.459 195.926C588.863 195.75 589.169 195.519 589.377 195.232C589.585 194.939 589.689 194.63 589.689 194.305ZM597.502 186.434V187.4H592.189V186.434H597.502ZM594.133 183.729H595.314V194.422C595.314 194.91 595.376 195.281 595.5 195.535C595.63 195.783 595.799 195.949 596.008 196.033C596.223 196.111 596.451 196.15 596.691 196.15C596.867 196.15 597.033 196.141 597.189 196.121C597.352 196.095 597.502 196.072 597.639 196.053L597.688 197.039C597.544 197.085 597.355 197.12 597.121 197.146C596.893 197.179 596.662 197.195 596.428 197.195C595.985 197.195 595.588 197.111 595.236 196.941C594.891 196.772 594.621 196.486 594.426 196.082C594.23 195.678 594.133 195.125 594.133 194.422V183.729ZM599.104 191.873V191.561C599.104 190.532 599.299 189.62 599.689 188.826C600.08 188.025 600.627 187.394 601.33 186.932C602.04 186.469 602.867 186.238 603.811 186.238C604.774 186.238 605.607 186.469 606.311 186.932C607.02 187.394 607.567 188.025 607.951 188.826C608.342 189.62 608.537 190.532 608.537 191.561V191.873C608.537 192.895 608.342 193.81 607.951 194.617C607.567 195.418 607.023 196.049 606.32 196.512C605.617 196.967 604.787 197.195 603.83 197.195C602.88 197.195 602.049 196.967 601.34 196.512C600.63 196.049 600.08 195.418 599.689 194.617C599.299 193.81 599.104 192.895 599.104 191.873ZM600.275 191.561V191.873C600.275 192.641 600.412 193.354 600.686 194.012C600.959 194.669 601.359 195.197 601.887 195.594C602.414 195.991 603.062 196.189 603.83 196.189C604.592 196.189 605.233 195.991 605.754 195.594C606.281 195.197 606.682 194.669 606.955 194.012C607.229 193.354 607.365 192.641 607.365 191.873V191.561C607.365 190.805 607.225 190.102 606.945 189.451C606.672 188.794 606.271 188.263 605.744 187.859C605.223 187.449 604.579 187.244 603.811 187.244C603.049 187.244 602.404 187.449 601.877 187.859C601.356 188.263 600.959 188.794 600.686 189.451C600.412 190.102 600.275 190.805 600.275 191.561ZM612.072 188.611V197H610.891V186.434H612.023L612.072 188.611ZM611.848 191.062L611.291 190.77C611.337 189.936 611.529 189.178 611.867 188.494C612.206 187.811 612.678 187.264 613.283 186.854C613.889 186.443 614.621 186.238 615.48 186.238C616.509 186.238 617.333 186.528 617.951 187.107C618.57 187.687 618.879 188.637 618.879 189.959V197H617.707V190.008C617.707 189.311 617.6 188.764 617.385 188.367C617.17 187.97 616.867 187.687 616.477 187.518C616.092 187.348 615.646 187.264 615.139 187.264C614.54 187.264 614.032 187.384 613.615 187.625C613.205 187.866 612.87 188.182 612.609 188.572C612.355 188.956 612.167 189.37 612.043 189.812C611.926 190.255 611.861 190.672 611.848 191.062ZM618.869 190.145L618.078 190.174C618.13 189.484 618.326 188.842 618.664 188.25C619.009 187.651 619.484 187.166 620.09 186.795C620.702 186.424 621.421 186.238 622.248 186.238C622.984 186.238 623.609 186.372 624.123 186.639C624.644 186.906 625.038 187.322 625.305 187.889C625.578 188.455 625.715 189.194 625.715 190.105V197H624.543V190.096C624.543 189.354 624.436 188.777 624.221 188.367C624.006 187.957 623.703 187.671 623.312 187.508C622.928 187.339 622.482 187.257 621.975 187.264C621.46 187.264 621.011 187.355 620.627 187.537C620.249 187.719 619.93 187.954 619.67 188.24C619.416 188.527 619.221 188.839 619.084 189.178C618.954 189.51 618.882 189.832 618.869 190.145ZM630.002 186.434V197H628.82V186.434H630.002ZM628.615 183.387C628.615 183.159 628.687 182.97 628.83 182.82C628.973 182.664 629.172 182.586 629.426 182.586C629.673 182.586 629.868 182.664 630.012 182.82C630.161 182.97 630.236 183.159 630.236 183.387C630.236 183.602 630.161 183.784 630.012 183.934C629.868 184.083 629.673 184.158 629.426 184.158C629.172 184.158 628.973 184.083 628.83 183.934C628.687 183.784 628.615 183.602 628.615 183.387ZM640.822 195.994V197H632.932V195.994H640.822ZM640.393 187.312L633.234 197H632.512V196.121L639.65 186.434H640.393V187.312ZM639.865 186.434V187.449H632.697V186.434H639.865ZM649.357 195.105V189.656C649.357 188.908 649.123 188.318 648.654 187.889C648.186 187.452 647.512 187.234 646.633 187.234C646.086 187.234 645.598 187.329 645.168 187.518C644.745 187.706 644.41 187.964 644.162 188.289C643.921 188.608 643.801 188.963 643.801 189.354L642.639 189.344C642.639 188.816 642.808 188.318 643.146 187.85C643.485 187.374 643.957 186.987 644.562 186.688C645.174 186.388 645.884 186.238 646.691 186.238C647.44 186.238 648.101 186.365 648.674 186.619C649.253 186.873 649.706 187.257 650.031 187.771C650.363 188.279 650.529 188.914 650.529 189.676V194.783C650.529 195.148 650.555 195.525 650.607 195.916C650.666 196.307 650.747 196.626 650.852 196.873V197H649.602C649.523 196.772 649.462 196.482 649.416 196.131C649.377 195.773 649.357 195.431 649.357 195.105ZM649.631 190.848L649.65 191.756H647.365C646.167 191.756 645.233 191.964 644.562 192.381C643.892 192.791 643.557 193.361 643.557 194.09C643.557 194.656 643.768 195.141 644.191 195.545C644.615 195.942 645.194 196.141 645.93 196.141C646.574 196.141 647.144 196.023 647.639 195.789C648.14 195.548 648.55 195.232 648.869 194.842C649.195 194.451 649.416 194.025 649.533 193.562L650.031 194.246C649.947 194.559 649.794 194.887 649.572 195.232C649.351 195.577 649.061 195.9 648.703 196.199C648.352 196.492 647.932 196.733 647.443 196.922C646.962 197.104 646.411 197.195 645.793 197.195C645.109 197.195 644.51 197.065 643.996 196.805C643.482 196.538 643.085 196.18 642.805 195.73C642.525 195.275 642.385 194.76 642.385 194.188C642.385 193.152 642.814 192.339 643.674 191.746C644.533 191.147 645.708 190.848 647.199 190.848H649.631ZM653.635 182H654.807V194.949L654.729 197H653.635V182ZM662.16 191.619V191.824C662.16 192.872 662.001 193.8 661.682 194.607C661.369 195.415 660.91 196.049 660.305 196.512C659.706 196.967 658.98 197.195 658.127 197.195C657.281 197.195 656.564 197.02 655.979 196.668C655.393 196.316 654.93 195.831 654.592 195.213C654.253 194.594 654.032 193.891 653.928 193.104V190.506C654.058 189.653 654.292 188.908 654.631 188.27C654.969 187.632 655.425 187.133 655.998 186.775C656.577 186.417 657.281 186.238 658.107 186.238C658.967 186.238 659.699 186.46 660.305 186.902C660.91 187.345 661.369 187.97 661.682 188.777C662.001 189.578 662.16 190.525 662.16 191.619ZM660.979 191.824V191.619C660.979 190.799 660.871 190.06 660.656 189.402C660.448 188.745 660.116 188.224 659.66 187.84C659.204 187.456 658.612 187.264 657.883 187.264C657.323 187.264 656.848 187.358 656.457 187.547C656.066 187.736 655.741 187.983 655.48 188.289C655.227 188.589 655.025 188.917 654.875 189.275C654.725 189.633 654.615 189.982 654.543 190.32V193.348C654.654 193.842 654.846 194.305 655.119 194.734C655.393 195.158 655.757 195.503 656.213 195.77C656.675 196.03 657.238 196.16 657.902 196.16C658.612 196.16 659.191 195.971 659.641 195.594C660.096 195.21 660.432 194.689 660.646 194.031C660.868 193.374 660.979 192.638 660.979 191.824ZM666.057 182V197H664.875V182H666.057ZM673.332 197.195C672.414 197.195 671.597 196.974 670.881 196.531C670.165 196.089 669.602 195.477 669.191 194.695C668.788 193.914 668.586 193.022 668.586 192.02V191.6C668.586 190.506 668.794 189.559 669.211 188.758C669.634 187.951 670.191 187.329 670.881 186.893C671.571 186.456 672.316 186.238 673.117 186.238C674.009 186.238 674.768 186.447 675.393 186.863C676.018 187.28 676.49 187.853 676.809 188.582C677.134 189.305 677.297 190.138 677.297 191.082V191.795H669.299V190.789H676.125V190.662C676.112 190.076 675.992 189.523 675.764 189.002C675.536 188.481 675.204 188.058 674.768 187.732C674.331 187.407 673.781 187.244 673.117 187.244C672.453 187.244 671.867 187.43 671.359 187.801C670.858 188.165 670.464 188.676 670.178 189.334C669.898 189.985 669.758 190.74 669.758 191.6V192.02C669.758 192.788 669.911 193.488 670.217 194.119C670.523 194.751 670.946 195.255 671.486 195.633C672.033 196.01 672.665 196.199 673.381 196.199C673.999 196.199 674.549 196.085 675.031 195.857C675.52 195.623 675.956 195.255 676.34 194.754L677.072 195.32C676.727 195.828 676.252 196.268 675.646 196.639C675.048 197.01 674.276 197.195 673.332 197.195ZM691.818 201.062V188.465L691.896 186.434H693V201.062H691.818ZM684.484 191.824V191.619C684.484 190.525 684.647 189.578 684.973 188.777C685.298 187.97 685.767 187.345 686.379 186.902C686.991 186.46 687.727 186.238 688.586 186.238C689.413 186.238 690.116 186.417 690.695 186.775C691.275 187.133 691.74 187.632 692.092 188.27C692.443 188.908 692.681 189.653 692.805 190.506V193.104C692.701 193.891 692.476 194.594 692.131 195.213C691.786 195.831 691.317 196.316 690.725 196.668C690.132 197.02 689.413 197.195 688.566 197.195C687.714 197.195 686.981 196.967 686.369 196.512C685.764 196.049 685.298 195.415 684.973 194.607C684.647 193.8 684.484 192.872 684.484 191.824ZM685.676 191.619V191.824C685.676 192.638 685.786 193.377 686.008 194.041C686.229 194.699 686.571 195.223 687.033 195.613C687.495 195.997 688.081 196.189 688.791 196.189C689.462 196.189 690.025 196.059 690.48 195.799C690.943 195.538 691.311 195.193 691.584 194.764C691.864 194.327 692.066 193.855 692.189 193.348V190.32C692.118 189.988 692.004 189.643 691.848 189.285C691.698 188.927 691.49 188.595 691.223 188.289C690.962 187.977 690.633 187.726 690.236 187.537C689.839 187.342 689.364 187.244 688.811 187.244C688.094 187.244 687.502 187.439 687.033 187.83C686.571 188.214 686.229 188.738 686.008 189.402C685.786 190.06 685.676 190.799 685.676 191.619ZM702.902 194.559V186.434H704.084V197H702.941L702.902 194.559ZM703.117 192.596L703.713 192.576C703.713 193.462 703.573 194.253 703.293 194.949C703.013 195.646 702.567 196.196 701.955 196.6C701.35 196.997 700.552 197.195 699.562 197.195C698.527 197.195 697.688 196.889 697.043 196.277C696.405 195.665 696.086 194.64 696.086 193.201V186.434H697.258V193.221C697.258 193.963 697.368 194.549 697.59 194.979C697.811 195.408 698.107 195.714 698.479 195.896C698.85 196.072 699.253 196.16 699.689 196.16C700.549 196.16 701.226 195.997 701.721 195.672C702.222 195.34 702.58 194.904 702.795 194.363C703.01 193.816 703.117 193.227 703.117 192.596ZM713.557 195.105V189.656C713.557 188.908 713.322 188.318 712.854 187.889C712.385 187.452 711.711 187.234 710.832 187.234C710.285 187.234 709.797 187.329 709.367 187.518C708.944 187.706 708.609 187.964 708.361 188.289C708.12 188.608 708 188.963 708 189.354L706.838 189.344C706.838 188.816 707.007 188.318 707.346 187.85C707.684 187.374 708.156 186.987 708.762 186.688C709.374 186.388 710.083 186.238 710.891 186.238C711.639 186.238 712.3 186.365 712.873 186.619C713.452 186.873 713.905 187.257 714.23 187.771C714.562 188.279 714.729 188.914 714.729 189.676V194.783C714.729 195.148 714.755 195.525 714.807 195.916C714.865 196.307 714.947 196.626 715.051 196.873V197H713.801C713.723 196.772 713.661 196.482 713.615 196.131C713.576 195.773 713.557 195.431 713.557 195.105ZM713.83 190.848L713.85 191.756H711.564C710.367 191.756 709.432 191.964 708.762 192.381C708.091 192.791 707.756 193.361 707.756 194.09C707.756 194.656 707.967 195.141 708.391 195.545C708.814 195.942 709.393 196.141 710.129 196.141C710.773 196.141 711.343 196.023 711.838 195.789C712.339 195.548 712.749 195.232 713.068 194.842C713.394 194.451 713.615 194.025 713.732 193.562L714.23 194.246C714.146 194.559 713.993 194.887 713.771 195.232C713.55 195.577 713.26 195.9 712.902 196.199C712.551 196.492 712.131 196.733 711.643 196.922C711.161 197.104 710.611 197.195 709.992 197.195C709.309 197.195 708.71 197.065 708.195 196.805C707.681 196.538 707.284 196.18 707.004 195.73C706.724 195.275 706.584 194.76 706.584 194.188C706.584 193.152 707.014 192.339 707.873 191.746C708.732 191.147 709.908 190.848 711.398 190.848H713.83ZM719.162 182V197H717.98V182H719.162ZM723.654 186.434V197H722.473V186.434H723.654ZM722.268 183.387C722.268 183.159 722.339 182.97 722.482 182.82C722.626 182.664 722.824 182.586 723.078 182.586C723.326 182.586 723.521 182.664 723.664 182.82C723.814 182.97 723.889 183.159 723.889 183.387C723.889 183.602 723.814 183.784 723.664 183.934C723.521 184.083 723.326 184.158 723.078 184.158C722.824 184.158 722.626 184.083 722.482 183.934C722.339 183.784 722.268 183.602 722.268 183.387ZM730.842 186.434V187.4H725.529V186.434H730.842ZM727.473 183.729H728.654V194.422C728.654 194.91 728.716 195.281 728.84 195.535C728.97 195.783 729.139 195.949 729.348 196.033C729.562 196.111 729.79 196.15 730.031 196.15C730.207 196.15 730.373 196.141 730.529 196.121C730.692 196.095 730.842 196.072 730.979 196.053L731.027 197.039C730.884 197.085 730.695 197.12 730.461 197.146C730.233 197.179 730.002 197.195 729.768 197.195C729.325 197.195 728.928 197.111 728.576 196.941C728.231 196.772 727.961 196.486 727.766 196.082C727.57 195.678 727.473 195.125 727.473 194.422V183.729ZM736.408 195.945L739.709 186.434H740.969L736.506 198.689C736.415 198.93 736.298 199.197 736.154 199.49C736.018 199.79 735.835 200.073 735.607 200.34C735.386 200.613 735.106 200.835 734.768 201.004C734.436 201.18 734.029 201.268 733.547 201.268C733.423 201.268 733.26 201.251 733.059 201.219C732.863 201.193 732.723 201.163 732.639 201.131L732.629 200.154C732.707 200.167 732.811 200.18 732.941 200.193C733.078 200.206 733.176 200.213 733.234 200.213C733.872 200.213 734.361 200.053 734.699 199.734C735.038 199.415 735.318 198.94 735.539 198.309L736.408 195.945ZM733.342 186.434L736.711 195.506L737.033 196.717L736.164 197.205L732.062 186.434H733.342ZM754.592 195.105V189.656C754.592 188.908 754.357 188.318 753.889 187.889C753.42 187.452 752.746 187.234 751.867 187.234C751.32 187.234 750.832 187.329 750.402 187.518C749.979 187.706 749.644 187.964 749.396 188.289C749.156 188.608 749.035 188.963 749.035 189.354L747.873 189.344C747.873 188.816 748.042 188.318 748.381 187.85C748.719 187.374 749.191 186.987 749.797 186.688C750.409 186.388 751.118 186.238 751.926 186.238C752.674 186.238 753.335 186.365 753.908 186.619C754.488 186.873 754.94 187.257 755.266 187.771C755.598 188.279 755.764 188.914 755.764 189.676V194.783C755.764 195.148 755.79 195.525 755.842 195.916C755.9 196.307 755.982 196.626 756.086 196.873V197H754.836C754.758 196.772 754.696 196.482 754.65 196.131C754.611 195.773 754.592 195.431 754.592 195.105ZM754.865 190.848L754.885 191.756H752.6C751.402 191.756 750.467 191.964 749.797 192.381C749.126 192.791 748.791 193.361 748.791 194.09C748.791 194.656 749.003 195.141 749.426 195.545C749.849 195.942 750.428 196.141 751.164 196.141C751.809 196.141 752.378 196.023 752.873 195.789C753.374 195.548 753.785 195.232 754.104 194.842C754.429 194.451 754.65 194.025 754.768 193.562L755.266 194.246C755.181 194.559 755.028 194.887 754.807 195.232C754.585 195.577 754.296 195.9 753.938 196.199C753.586 196.492 753.166 196.733 752.678 196.922C752.196 197.104 751.646 197.195 751.027 197.195C750.344 197.195 749.745 197.065 749.23 196.805C748.716 196.538 748.319 196.18 748.039 195.73C747.759 195.275 747.619 194.76 747.619 194.188C747.619 193.152 748.049 192.339 748.908 191.746C749.768 191.147 750.943 190.848 752.434 190.848H754.865ZM760.051 188.689V197H758.879V186.434H760.002L760.051 188.689ZM759.797 191.062L759.279 190.77C759.331 189.936 759.536 189.178 759.895 188.494C760.253 187.811 760.738 187.264 761.35 186.854C761.962 186.443 762.674 186.238 763.488 186.238C764.191 186.238 764.794 186.368 765.295 186.629C765.796 186.883 766.18 187.296 766.447 187.869C766.721 188.436 766.857 189.184 766.857 190.115V197H765.686V190.105C765.686 189.383 765.581 188.816 765.373 188.406C765.171 187.99 764.885 187.697 764.514 187.527C764.143 187.352 763.703 187.264 763.195 187.264C762.642 187.264 762.154 187.384 761.73 187.625C761.314 187.866 760.962 188.182 760.676 188.572C760.396 188.956 760.181 189.37 760.031 189.812C759.882 190.255 759.803 190.672 759.797 191.062ZM776.75 194.949V182H777.922V197H776.828L776.75 194.949ZM769.406 191.824V191.619C769.406 190.525 769.572 189.578 769.904 188.777C770.236 187.97 770.708 187.345 771.32 186.902C771.932 186.46 772.655 186.238 773.488 186.238C774.322 186.238 775.021 186.417 775.588 186.775C776.161 187.133 776.617 187.632 776.955 188.27C777.3 188.908 777.535 189.653 777.658 190.506V193.104C777.554 193.891 777.333 194.594 776.994 195.213C776.662 195.831 776.203 196.316 775.617 196.668C775.031 197.02 774.315 197.195 773.469 197.195C772.642 197.195 771.923 196.967 771.311 196.512C770.705 196.049 770.236 195.415 769.904 194.607C769.572 193.8 769.406 192.872 769.406 191.824ZM770.598 191.619V191.824C770.598 192.638 770.708 193.374 770.93 194.031C771.151 194.689 771.49 195.21 771.945 195.594C772.401 195.971 772.984 196.16 773.693 196.16C774.364 196.16 774.924 196.033 775.373 195.779C775.829 195.519 776.193 195.177 776.467 194.754C776.74 194.324 776.939 193.855 777.062 193.348V190.32C776.991 189.982 776.88 189.633 776.73 189.275C776.581 188.917 776.376 188.589 776.115 188.289C775.861 187.983 775.536 187.736 775.139 187.547C774.748 187.358 774.273 187.264 773.713 187.264C772.997 187.264 772.408 187.456 771.945 187.84C771.49 188.224 771.151 188.745 770.93 189.402C770.708 190.06 770.598 190.799 770.598 191.619ZM787.521 188.465V201.062H786.35V186.434H787.443L787.521 188.465ZM794.865 191.619V191.824C794.865 192.872 794.706 193.8 794.387 194.607C794.074 195.415 793.615 196.049 793.01 196.512C792.411 196.967 791.685 197.195 790.832 197.195C789.986 197.195 789.266 197.023 788.674 196.678C788.081 196.333 787.609 195.861 787.258 195.262C786.913 194.656 786.688 193.966 786.584 193.191V190.506C786.714 189.653 786.952 188.908 787.297 188.27C787.648 187.632 788.114 187.133 788.693 186.775C789.279 186.417 789.986 186.238 790.812 186.238C791.678 186.238 792.411 186.46 793.01 186.902C793.615 187.345 794.074 187.97 794.387 188.777C794.706 189.578 794.865 190.525 794.865 191.619ZM793.684 191.824V191.619C793.684 190.799 793.57 190.06 793.342 189.402C793.12 188.745 792.779 188.224 792.316 187.84C791.854 187.456 791.265 187.264 790.549 187.264C789.989 187.264 789.51 187.358 789.113 187.547C788.723 187.736 788.397 187.983 788.137 188.289C787.883 188.589 787.681 188.917 787.531 189.275C787.382 189.633 787.271 189.982 787.199 190.32V193.436C787.323 193.93 787.521 194.386 787.795 194.803C788.068 195.219 788.433 195.555 788.889 195.809C789.344 196.062 789.904 196.189 790.568 196.189C791.278 196.189 791.861 195.997 792.316 195.613C792.779 195.223 793.12 194.699 793.342 194.041C793.57 193.377 793.684 192.638 793.684 191.824ZM798.771 182V197H797.59V182H798.771ZM808.381 195.105V189.656C808.381 188.908 808.146 188.318 807.678 187.889C807.209 187.452 806.535 187.234 805.656 187.234C805.109 187.234 804.621 187.329 804.191 187.518C803.768 187.706 803.433 187.964 803.186 188.289C802.945 188.608 802.824 188.963 802.824 189.354L801.662 189.344C801.662 188.816 801.831 188.318 802.17 187.85C802.508 187.374 802.98 186.987 803.586 186.688C804.198 186.388 804.908 186.238 805.715 186.238C806.464 186.238 807.124 186.365 807.697 186.619C808.277 186.873 808.729 187.257 809.055 187.771C809.387 188.279 809.553 188.914 809.553 189.676V194.783C809.553 195.148 809.579 195.525 809.631 195.916C809.689 196.307 809.771 196.626 809.875 196.873V197H808.625C808.547 196.772 808.485 196.482 808.439 196.131C808.4 195.773 808.381 195.431 808.381 195.105ZM808.654 190.848L808.674 191.756H806.389C805.191 191.756 804.257 191.964 803.586 192.381C802.915 192.791 802.58 193.361 802.58 194.09C802.58 194.656 802.792 195.141 803.215 195.545C803.638 195.942 804.217 196.141 804.953 196.141C805.598 196.141 806.167 196.023 806.662 195.789C807.163 195.548 807.574 195.232 807.893 194.842C808.218 194.451 808.439 194.025 808.557 193.562L809.055 194.246C808.97 194.559 808.817 194.887 808.596 195.232C808.374 195.577 808.085 195.9 807.727 196.199C807.375 196.492 806.955 196.733 806.467 196.922C805.985 197.104 805.435 197.195 804.816 197.195C804.133 197.195 803.534 197.065 803.02 196.805C802.505 196.538 802.108 196.18 801.828 195.73C801.548 195.275 801.408 194.76 801.408 194.188C801.408 193.152 801.838 192.339 802.697 191.746C803.557 191.147 804.732 190.848 806.223 190.848H808.654ZM815.646 195.945L818.947 186.434H820.207L815.744 198.689C815.653 198.93 815.536 199.197 815.393 199.49C815.256 199.79 815.074 200.073 814.846 200.34C814.624 200.613 814.344 200.835 814.006 201.004C813.674 201.18 813.267 201.268 812.785 201.268C812.661 201.268 812.499 201.251 812.297 201.219C812.102 201.193 811.962 201.163 811.877 201.131L811.867 200.154C811.945 200.167 812.049 200.18 812.18 200.193C812.316 200.206 812.414 200.213 812.473 200.213C813.111 200.213 813.599 200.053 813.938 199.734C814.276 199.415 814.556 198.94 814.777 198.309L815.646 195.945ZM812.58 186.434L815.949 195.506L816.271 196.717L815.402 197.205L811.301 186.434H812.58ZM822.014 182H823.186V194.949L823.107 197H822.014V182ZM830.539 191.619V191.824C830.539 192.872 830.38 193.8 830.061 194.607C829.748 195.415 829.289 196.049 828.684 196.512C828.085 196.967 827.359 197.195 826.506 197.195C825.66 197.195 824.943 197.02 824.357 196.668C823.771 196.316 823.309 195.831 822.971 195.213C822.632 194.594 822.411 193.891 822.307 193.104V190.506C822.437 189.653 822.671 188.908 823.01 188.27C823.348 187.632 823.804 187.133 824.377 186.775C824.956 186.417 825.66 186.238 826.486 186.238C827.346 186.238 828.078 186.46 828.684 186.902C829.289 187.345 829.748 187.97 830.061 188.777C830.38 189.578 830.539 190.525 830.539 191.619ZM829.357 191.824V191.619C829.357 190.799 829.25 190.06 829.035 189.402C828.827 188.745 828.495 188.224 828.039 187.84C827.583 187.456 826.991 187.264 826.262 187.264C825.702 187.264 825.227 187.358 824.836 187.547C824.445 187.736 824.12 187.983 823.859 188.289C823.605 188.589 823.404 188.917 823.254 189.275C823.104 189.633 822.993 189.982 822.922 190.32V193.348C823.033 193.842 823.225 194.305 823.498 194.734C823.771 195.158 824.136 195.503 824.592 195.77C825.054 196.03 825.617 196.16 826.281 196.16C826.991 196.16 827.57 195.971 828.02 195.594C828.475 195.21 828.811 194.689 829.025 194.031C829.247 193.374 829.357 192.638 829.357 191.824ZM839.553 195.105V189.656C839.553 188.908 839.318 188.318 838.85 187.889C838.381 187.452 837.707 187.234 836.828 187.234C836.281 187.234 835.793 187.329 835.363 187.518C834.94 187.706 834.605 187.964 834.357 188.289C834.117 188.608 833.996 188.963 833.996 189.354L832.834 189.344C832.834 188.816 833.003 188.318 833.342 187.85C833.68 187.374 834.152 186.987 834.758 186.688C835.37 186.388 836.079 186.238 836.887 186.238C837.635 186.238 838.296 186.365 838.869 186.619C839.449 186.873 839.901 187.257 840.227 187.771C840.559 188.279 840.725 188.914 840.725 189.676V194.783C840.725 195.148 840.751 195.525 840.803 195.916C840.861 196.307 840.943 196.626 841.047 196.873V197H839.797C839.719 196.772 839.657 196.482 839.611 196.131C839.572 195.773 839.553 195.431 839.553 195.105ZM839.826 190.848L839.846 191.756H837.561C836.363 191.756 835.428 191.964 834.758 192.381C834.087 192.791 833.752 193.361 833.752 194.09C833.752 194.656 833.964 195.141 834.387 195.545C834.81 195.942 835.389 196.141 836.125 196.141C836.77 196.141 837.339 196.023 837.834 195.789C838.335 195.548 838.745 195.232 839.064 194.842C839.39 194.451 839.611 194.025 839.729 193.562L840.227 194.246C840.142 194.559 839.989 194.887 839.768 195.232C839.546 195.577 839.257 195.9 838.898 196.199C838.547 196.492 838.127 196.733 837.639 196.922C837.157 197.104 836.607 197.195 835.988 197.195C835.305 197.195 834.706 197.065 834.191 196.805C833.677 196.538 833.28 196.18 833 195.73C832.72 195.275 832.58 194.76 832.58 194.188C832.58 193.152 833.01 192.339 833.869 191.746C834.729 191.147 835.904 190.848 837.395 190.848H839.826ZM847.756 196.189C848.244 196.189 848.703 196.095 849.133 195.906C849.562 195.717 849.921 195.441 850.207 195.076C850.493 194.712 850.653 194.262 850.686 193.729H851.818C851.786 194.399 851.581 194.995 851.203 195.516C850.826 196.036 850.334 196.447 849.729 196.746C849.13 197.046 848.472 197.195 847.756 197.195C846.766 197.195 845.936 196.961 845.266 196.492C844.595 196.023 844.09 195.392 843.752 194.598C843.413 193.797 843.244 192.905 843.244 191.922V191.512C843.244 190.522 843.413 189.63 843.752 188.836C844.09 188.042 844.595 187.41 845.266 186.941C845.936 186.473 846.763 186.238 847.746 186.238C848.501 186.238 849.178 186.391 849.777 186.697C850.376 187.003 850.858 187.439 851.223 188.006C851.587 188.566 851.786 189.23 851.818 189.998H850.686C850.653 189.425 850.503 188.937 850.236 188.533C849.969 188.123 849.618 187.807 849.182 187.586C848.752 187.358 848.273 187.244 847.746 187.244C846.945 187.244 846.301 187.446 845.812 187.85C845.324 188.253 844.969 188.781 844.748 189.432C844.527 190.076 844.416 190.77 844.416 191.512V191.922C844.416 192.671 844.523 193.37 844.738 194.021C844.96 194.666 845.314 195.19 845.803 195.594C846.298 195.991 846.949 196.189 847.756 196.189ZM855.334 182V197H854.152V182H855.334ZM861.955 186.434L857.023 191.336L854.914 193.377L854.748 192.215L856.438 190.389L860.471 186.434H861.955ZM860.939 197L856.535 191.512L857.17 190.496L862.346 197H860.939ZM875.666 194.305C875.666 194.012 875.591 193.729 875.441 193.455C875.298 193.182 875.025 192.928 874.621 192.693C874.217 192.452 873.625 192.251 872.844 192.088C872.056 191.925 871.385 191.723 870.832 191.482C870.285 191.242 869.865 190.932 869.572 190.555C869.286 190.171 869.143 189.692 869.143 189.119C869.143 188.592 869.296 188.113 869.602 187.684C869.908 187.247 870.337 186.899 870.891 186.639C871.451 186.372 872.111 186.238 872.873 186.238C873.693 186.238 874.393 186.378 874.973 186.658C875.552 186.932 875.998 187.306 876.311 187.781C876.623 188.257 876.779 188.797 876.779 189.402H875.598C875.598 188.855 875.363 188.361 874.895 187.918C874.426 187.469 873.752 187.244 872.873 187.244C872.268 187.244 871.776 187.339 871.398 187.527C871.027 187.71 870.754 187.941 870.578 188.221C870.409 188.501 870.324 188.787 870.324 189.08C870.324 189.393 870.393 189.669 870.529 189.91C870.673 190.151 870.946 190.369 871.35 190.564C871.753 190.76 872.349 190.945 873.137 191.121C873.99 191.316 874.686 191.551 875.227 191.824C875.773 192.091 876.177 192.42 876.438 192.811C876.704 193.201 876.838 193.676 876.838 194.236C876.838 194.816 876.675 195.33 876.35 195.779C876.031 196.222 875.578 196.57 874.992 196.824C874.413 197.072 873.729 197.195 872.941 197.195C872.049 197.195 871.294 197.046 870.676 196.746C870.057 196.447 869.589 196.056 869.27 195.574C868.951 195.092 868.791 194.575 868.791 194.021H869.973C870.005 194.575 870.174 195.011 870.48 195.33C870.793 195.643 871.171 195.864 871.613 195.994C872.056 196.124 872.499 196.189 872.941 196.189C873.534 196.189 874.032 196.102 874.436 195.926C874.839 195.75 875.145 195.519 875.354 195.232C875.562 194.939 875.666 194.63 875.666 194.305ZM880.627 188.465V201.062H879.455V186.434H880.549L880.627 188.465ZM887.971 191.619V191.824C887.971 192.872 887.811 193.8 887.492 194.607C887.18 195.415 886.721 196.049 886.115 196.512C885.516 196.967 884.79 197.195 883.938 197.195C883.091 197.195 882.372 197.023 881.779 196.678C881.187 196.333 880.715 195.861 880.363 195.262C880.018 194.656 879.794 193.966 879.689 193.191V190.506C879.82 189.653 880.057 188.908 880.402 188.27C880.754 187.632 881.219 187.133 881.799 186.775C882.385 186.417 883.091 186.238 883.918 186.238C884.784 186.238 885.516 186.46 886.115 186.902C886.721 187.345 887.18 187.97 887.492 188.777C887.811 189.578 887.971 190.525 887.971 191.619ZM886.789 191.824V191.619C886.789 190.799 886.675 190.06 886.447 189.402C886.226 188.745 885.884 188.224 885.422 187.84C884.96 187.456 884.37 187.264 883.654 187.264C883.094 187.264 882.616 187.358 882.219 187.547C881.828 187.736 881.503 187.983 881.242 188.289C880.988 188.589 880.786 188.917 880.637 189.275C880.487 189.633 880.376 189.982 880.305 190.32V193.436C880.428 193.93 880.627 194.386 880.9 194.803C881.174 195.219 881.538 195.555 881.994 195.809C882.45 196.062 883.01 196.189 883.674 196.189C884.383 196.189 884.966 195.997 885.422 195.613C885.884 195.223 886.226 194.699 886.447 194.041C886.675 193.377 886.789 192.638 886.789 191.824ZM894.66 197.195C893.742 197.195 892.925 196.974 892.209 196.531C891.493 196.089 890.93 195.477 890.52 194.695C890.116 193.914 889.914 193.022 889.914 192.02V191.6C889.914 190.506 890.122 189.559 890.539 188.758C890.962 187.951 891.519 187.329 892.209 186.893C892.899 186.456 893.645 186.238 894.445 186.238C895.337 186.238 896.096 186.447 896.721 186.863C897.346 187.28 897.818 187.853 898.137 188.582C898.462 189.305 898.625 190.138 898.625 191.082V191.795H890.627V190.789H897.453V190.662C897.44 190.076 897.32 189.523 897.092 189.002C896.864 188.481 896.532 188.058 896.096 187.732C895.66 187.407 895.109 187.244 894.445 187.244C893.781 187.244 893.195 187.43 892.688 187.801C892.186 188.165 891.792 188.676 891.506 189.334C891.226 189.985 891.086 190.74 891.086 191.6V192.02C891.086 192.788 891.239 193.488 891.545 194.119C891.851 194.751 892.274 195.255 892.814 195.633C893.361 196.01 893.993 196.199 894.709 196.199C895.327 196.199 895.878 196.085 896.359 195.857C896.848 195.623 897.284 195.255 897.668 194.754L898.4 195.32C898.055 195.828 897.58 196.268 896.975 196.639C896.376 197.01 895.604 197.195 894.66 197.195ZM905.012 197.195C904.094 197.195 903.277 196.974 902.561 196.531C901.844 196.089 901.281 195.477 900.871 194.695C900.467 193.914 900.266 193.022 900.266 192.02V191.6C900.266 190.506 900.474 189.559 900.891 188.758C901.314 187.951 901.87 187.329 902.561 186.893C903.251 186.456 903.996 186.238 904.797 186.238C905.689 186.238 906.447 186.447 907.072 186.863C907.697 187.28 908.169 187.853 908.488 188.582C908.814 189.305 908.977 190.138 908.977 191.082V191.795H900.979V190.789H907.805V190.662C907.792 190.076 907.671 189.523 907.443 189.002C907.215 188.481 906.883 188.058 906.447 187.732C906.011 187.407 905.461 187.244 904.797 187.244C904.133 187.244 903.547 187.43 903.039 187.801C902.538 188.165 902.144 188.676 901.857 189.334C901.577 189.985 901.438 190.74 901.438 191.6V192.02C901.438 192.788 901.59 193.488 901.896 194.119C902.202 194.751 902.626 195.255 903.166 195.633C903.713 196.01 904.344 196.199 905.061 196.199C905.679 196.199 906.229 196.085 906.711 195.857C907.199 195.623 907.635 195.255 908.02 194.754L908.752 195.32C908.407 195.828 907.932 196.268 907.326 196.639C906.727 197.01 905.956 197.195 905.012 197.195ZM918.137 194.949V182H919.309V197H918.215L918.137 194.949ZM910.793 191.824V191.619C910.793 190.525 910.959 189.578 911.291 188.777C911.623 187.97 912.095 187.345 912.707 186.902C913.319 186.46 914.042 186.238 914.875 186.238C915.708 186.238 916.408 186.417 916.975 186.775C917.548 187.133 918.003 187.632 918.342 188.27C918.687 188.908 918.921 189.653 919.045 190.506V193.104C918.941 193.891 918.719 194.594 918.381 195.213C918.049 195.831 917.59 196.316 917.004 196.668C916.418 197.02 915.702 197.195 914.855 197.195C914.029 197.195 913.309 196.967 912.697 196.512C912.092 196.049 911.623 195.415 911.291 194.607C910.959 193.8 910.793 192.872 910.793 191.824ZM911.984 191.619V191.824C911.984 192.638 912.095 193.374 912.316 194.031C912.538 194.689 912.876 195.21 913.332 195.594C913.788 195.971 914.37 196.16 915.08 196.16C915.751 196.16 916.311 196.033 916.76 195.779C917.215 195.519 917.58 195.177 917.854 194.754C918.127 194.324 918.326 193.855 918.449 193.348V190.32C918.378 189.982 918.267 189.633 918.117 189.275C917.967 188.917 917.762 188.589 917.502 188.289C917.248 187.983 916.923 187.736 916.525 187.547C916.135 187.358 915.66 187.264 915.1 187.264C914.383 187.264 913.794 187.456 913.332 187.84C912.876 188.224 912.538 188.745 912.316 189.402C912.095 190.06 911.984 190.799 911.984 191.619Z" fill="white"/>
<g opacity="0.5" clip-path="url(#clip0_1_2)">
<mask id="mask0_1_2" style="mask-type:luminance" maskUnits="userSpaceOnUse" x="0" y="1" width="299" height="299">
<path d="M299 1H0V300H299V1Z" fill="white"/>
</mask>
<g mask="url(#mask0_1_2)">
<path opacity="0.4" d="M211.792 250.167H87.2083C49.8333 250.167 24.9167 225.25 24.9167 187.875V113.125C24.9167 75.75 49.8333 50.8333 87.2083 50.8333H211.792C249.167 50.8333 274.083 75.75 274.083 113.125V187.875C274.083 225.25 249.167 250.167 211.792 250.167Z" fill="white"/>
<path d="M142.275 119.231L173.047 137.669C184.758 144.77 184.758 156.232 173.047 163.333L142.275 181.772C129.817 189.247 119.601 183.516 119.601 168.94V131.938C119.601 117.487 129.817 111.756 142.275 119.231Z" fill="white"/>
</g>
</g>
<defs>
<clipPath id="clip0_1_2">
<rect width="299" height="299" fill="white" transform="translate(0 1)"/>
</clipPath>
</defs>
</svg>
